<?xml version="1.0" encoding="iso-8859-1"?>
<!-- Generator: Adobe Illustrator 19.0.0, SVG Export Plug-In . SVG Version: 6.00 Build 0)  -->
<svg version="1.1" id="Layer_1" xmlns="http://www.w3.org/2000/svg" xmlns:xlink="http://www.w3.org/1999/xlink" x="0px" y="0px"
	 viewBox="0 0 512 512" style="enable-background:new 0 0 512 512;" xml:space="preserve">
<g>
	<g>
		<g>
			<path d="M256,0C114.843,0,0,114.843,0,256s114.843,256,256,256s256-114.843,256-256S397.157,0,256,0z M256,493.037
				C125.296,493.037,18.963,386.704,18.963,256S125.296,18.963,256,18.963S493.037,125.296,493.037,256S386.704,493.037,256,493.037
				z"/>
			<path d="M360.296,246.518h-195.19l57.231-57.232c3.704-3.703,3.703-9.704,0-13.407c-3.703-3.704-9.704-3.704-13.407,0
				l-73.412,73.412c-1.847,1.847-2.773,4.269-2.778,6.69v0.009v0.005V256c0,2.708,1.134,5.148,2.954,6.875l73.236,73.236
				c1.852,1.852,4.278,2.778,6.704,2.778s4.852-0.926,6.704-2.778c3.704-3.703,3.704-9.704,0-13.407l-57.222-57.222h195.181
				c5.236,0,9.481-4.245,9.481-9.482S365.532,246.518,360.296,246.518z"/>
		</g>
	</g>
</g>
<g>
</g>
<g>
</g>
<g>
</g>
<g>
</g>
<g>
</g>
<g>
</g>
<g>
</g>
<g>
</g>
<g>
</g>
<g>
</g>
<g>
</g>
<g>
</g>
<g>
</g>
<g>
</g>
<g>
</g>
</svg>
